<svg width="200" height="200" viewBox="0 0 200 200" fill="none" xmlns="http://www.w3.org/2000/svg">
<path d="M171.893 98.4923H170.036V86.0335C168.327 81.1127 164.905 77.0017 157.82 77.0017C152.73 77.0017 146.576 77 137.859 77H49.8519C40.7408 77 35.8183 81.8691 33.1563 87.1311H36.9606C37.4362 87.1311 37.8204 87.5153 37.8204 87.9908L37.5344 97.6325C37.5344 98.1081 37.1502 98.4923 36.6746 98.4923H30.105C30.0257 99.4709 30.0257 100.057 30.0257 100.057C30.0257 105.758 33.7266 118.386 33.7266 118.386H71.1857V115.903C71.1857 114.319 72.4693 113.036 74.0527 113.036H81.1847L83.0338 116.448H90.6768L92.2794 113.036H98.3035C99.8869 113.036 101.17 114.319 101.17 115.903L101.948 118.386H167.896L171.981 99.912C171.948 99.4796 171.921 99.004 171.893 98.4923Z" fill="black"/>
<path d="M184.295 114.852H168.624C168.097 114.852 167.669 115.28 167.669 115.807C167.669 116.335 168.097 116.763 168.624 116.763H184.295C184.822 116.763 185.25 116.335 185.25 115.807C185.25 115.28 184.822 114.852 184.295 114.852Z" fill="black"/>
<path d="M97.0957 110.918C93.4826 110.918 90.5536 113.847 90.5536 117.46C90.5536 121.073 93.4826 124 97.0957 124C100.709 124 103.638 121.071 103.638 117.46C103.636 113.847 100.707 110.918 97.0957 110.918ZM97.0957 121.609C94.8042 121.609 92.9451 119.751 92.9451 117.46C92.9451 115.166 94.8024 113.309 97.0957 113.309C99.3872 113.309 101.246 115.166 101.246 117.46C101.245 119.751 99.3872 121.609 97.0957 121.609Z" fill="black"/>
<path d="M76.6321 110.918C73.019 110.918 70.09 113.847 70.09 117.46C70.09 121.073 73.019 124 76.6321 124C80.2451 124 83.1742 121.071 83.1742 117.46C83.1725 113.847 80.2434 110.918 76.6321 110.918ZM76.6321 121.609C74.3405 121.609 72.4814 119.751 72.4814 117.46C72.4814 115.166 74.3388 113.309 76.6321 113.309C78.9236 113.309 80.7827 115.166 80.7827 117.46C80.781 119.751 78.9236 121.609 76.6321 121.609Z" fill="black"/>
<path d="M52.9164 97.6582C52.9164 98.1873 52.6756 98.4758 52.1942 98.4758H49.498C49.0406 98.4758 48.7757 98.2354 48.7757 97.7544V95.6621C48.7757 95.1811 48.535 94.9406 48.0535 94.9406H45.9832C45.5258 94.9406 45.261 95.1811 45.261 95.6621V97.7544C45.261 98.2354 45.0203 98.4758 44.5388 98.4758H41.8426C41.3852 98.4758 41.1204 98.1873 41.1204 97.6582V87.4612C41.1204 84.4309 41.6019 81.2083 47.0184 81.2083C52.4349 81.2083 52.9164 84.4309 52.9164 87.4612V97.6582ZM48.7757 87.4612C48.7757 86.3068 48.6072 85.7296 47.0184 85.7296C45.4296 85.7296 45.261 86.3068 45.261 87.4612V90.0826C45.261 90.5395 45.5258 90.8041 45.9832 90.8041H48.0535C48.535 90.78 48.7757 90.5395 48.7757 90.0585V87.4612Z" fill="white"/>
<path d="M59.8995 81.6412C60.381 81.6412 60.6217 81.8817 60.6217 82.3627V97.7544C60.6217 98.2113 60.381 98.4758 59.8995 98.4758H57.2515C56.7941 98.4758 56.5293 98.2113 56.5293 97.7544V82.3627C56.5293 81.8817 56.7941 81.6412 57.2515 81.6412H59.8995Z" fill="white"/>
<path d="M74.4767 92.4394L77.0285 97.1772C77.3655 97.8025 76.9803 98.4758 76.234 98.4758H73.4897C73.249 98.4758 73.0323 98.3556 72.936 98.1392L70.4324 93.3052C70.3842 93.2331 70.312 93.185 70.2398 93.185H69.2768C68.8435 93.185 68.5306 93.4976 68.5306 93.9305V97.7303C68.5306 98.1632 68.2176 98.4758 67.7843 98.4758H65.0881C64.6548 98.4758 64.3418 98.1632 64.3418 97.7303V82.3867C64.3418 81.9538 64.6548 81.6412 65.0881 81.6412H70.3601C74.6452 81.6412 76.3785 83.469 76.3785 87.4131C76.3785 89.6497 75.8248 91.2129 74.5489 92.1268C74.4526 92.1989 74.4285 92.3192 74.4767 92.4394ZM70.5046 85.7777H69.2768C68.8435 85.7777 68.5306 86.0904 68.5306 86.5233V88.3029C68.5306 88.7358 68.8435 89.0484 69.2768 89.0484H70.5046C71.6601 89.0484 72.2379 88.9042 72.2379 87.4131C72.2379 85.922 71.6601 85.7777 70.5046 85.7777Z" fill="white"/>
<path d="M90.7292 87.0042L87.9849 87.6055C87.5034 87.7017 87.2627 87.4852 87.1904 87.0042C87.0219 86.0182 86.2275 85.3929 85.096 85.3929C84.1572 85.3929 83.5794 85.9461 83.6757 86.4992C84.0128 88.3751 91.6199 88.327 91.6199 93.8583C91.6199 94.5798 90.8014 98.8366 85.096 98.8366C80.0406 98.8366 78.9573 95.5178 78.837 93.6419C78.8129 93.209 79.0296 92.9445 79.4629 92.8483L82.1832 92.247C82.6646 92.1508 82.9295 92.3673 82.9776 92.8723C83.0739 94.0267 83.9646 94.7001 85.096 94.7001C86.2756 94.7001 87.1423 94.0026 86.9978 93.3533C86.5405 91.3091 79.2944 91.766 79.2944 86.2347C79.2703 85.5132 79.7036 81.2564 85.096 81.2564C90.0552 81.2564 91.2107 84.479 91.3551 86.2106C91.3792 86.6435 91.1625 86.908 90.7292 87.0042Z" fill="white"/>
<path d="M98.3003 86.4992C98.3003 86.0182 98.0596 85.7777 97.5781 85.7777H94.2078C93.7504 85.7777 93.4856 85.5132 93.4856 85.0562V82.3627C93.4856 81.8817 93.7504 81.6412 94.2078 81.6412H106.533C107.015 81.6412 107.256 81.8817 107.256 82.3627V85.0562C107.256 85.5132 107.015 85.7777 106.533 85.7777H103.163C102.706 85.7777 102.441 86.0182 102.441 86.4992V97.7544C102.441 98.2113 102.2 98.4758 101.719 98.4758H99.0225C98.5651 98.4758 98.3003 98.2113 98.3003 97.7544V86.4992Z" fill="white"/>
<path d="M120.154 92.4394L122.706 97.1772C123.043 97.8025 122.658 98.4758 121.911 98.4758H119.167C118.926 98.4758 118.71 98.3556 118.613 98.1392L116.11 93.3052C116.062 93.2331 115.989 93.185 115.917 93.185H114.954C114.521 93.185 114.208 93.4976 114.208 93.9305V97.7303C114.208 98.1632 113.895 98.4758 113.462 98.4758H110.765C110.332 98.4758 110.019 98.1632 110.019 97.7303V82.3867C110.019 81.9538 110.332 81.6412 110.765 81.6412H116.037C120.323 81.6412 122.056 83.469 122.056 87.4131C122.056 89.6497 121.502 91.2129 120.226 92.1268C120.13 92.1989 120.106 92.3192 120.154 92.4394ZM116.182 85.7777H114.954C114.521 85.7777 114.208 86.0904 114.208 86.5233V88.3029C114.208 88.7358 114.521 89.0484 114.954 89.0484H116.182C117.337 89.0484 117.915 88.9042 117.915 87.4131C117.915 85.922 117.337 85.7777 116.182 85.7777Z" fill="white"/>
<path d="M136.446 81.6412C136.928 81.6412 137.168 81.8817 137.168 82.3627V85.0562C137.168 85.5132 136.928 85.7777 136.446 85.7777H130.62C130.163 85.7777 129.898 86.0182 129.898 86.4992V87.2688C129.898 87.7257 130.163 87.9903 130.62 87.9903H134.352C134.833 87.9903 135.074 88.2308 135.074 88.7118V91.4053C135.074 91.8622 134.833 92.1268 134.352 92.1268H130.62C130.163 92.1268 129.898 92.3673 129.898 92.8483V93.6179C129.898 94.0748 130.163 94.3393 130.62 94.3393H136.446C136.928 94.3393 137.168 94.5798 137.168 95.0608V97.7544C137.168 98.2354 136.928 98.4758 136.446 98.4758H126.335C125.878 98.4758 125.613 98.2113 125.613 97.7544V82.3627C125.613 81.8817 125.878 81.6412 126.335 81.6412H136.446Z" fill="white"/>
<path d="M152.013 97.6582C152.013 98.1873 151.772 98.4758 151.291 98.4758H148.595C148.137 98.4758 147.872 98.2354 147.872 97.7544V95.6621C147.872 95.1811 147.632 94.9406 147.15 94.9406H145.08C144.623 94.9406 144.358 95.1811 144.358 95.6621V97.7544C144.358 98.2354 144.117 98.4758 143.635 98.4758H140.939C140.482 98.4758 140.217 98.1873 140.217 97.6582V87.4612C140.217 84.4309 140.699 81.2083 146.115 81.2083C151.532 81.2083 152.013 84.4309 152.013 87.4612V97.6582ZM147.872 87.4612C147.872 86.3068 147.704 85.7296 146.115 85.7296C144.526 85.7296 144.358 86.3068 144.358 87.4612V90.0826C144.358 90.5395 144.623 90.8041 145.08 90.8041H147.15C147.632 90.78 147.872 90.5395 147.872 90.0585V87.4612Z" fill="white"/>
<path d="M161.331 81.6412C161.765 81.6412 162.005 81.8817 162.102 82.2905L163.811 89.2889C163.859 89.5294 164.052 89.5294 164.1 89.2889L165.809 82.2905C165.905 81.8817 166.146 81.6412 166.579 81.6412H171.562C172.044 81.6412 172.285 81.8817 172.285 82.3627V97.7544C172.285 98.2113 172.044 98.4758 171.562 98.4758H168.866C168.409 98.4758 168.144 98.2113 168.144 97.7544V88.2789C168.144 88.1105 167.927 88.0865 167.879 88.2548L165.544 97.8506C165.448 98.2594 165.183 98.4758 164.75 98.4758H163.161C162.728 98.4758 162.463 98.2594 162.366 97.8506L160.031 88.2548C159.983 88.0865 159.767 88.1105 159.767 88.2789V97.7544C159.767 98.2113 159.526 98.4758 159.044 98.4758H156.348C155.867 98.4758 155.626 98.2113 155.626 97.7544V82.3627C155.626 81.8817 155.867 81.6412 156.348 81.6412H161.331Z" fill="white"/>
<path d="M131.867 102.362H135.802C139.324 102.362 140.674 103.786 140.674 106.859C140.674 107.496 140.486 108.733 139.718 109.576C140.486 109.932 141.048 110.869 141.048 112.031C141.048 114.354 140.018 115.479 136.495 115.479H131.867C131.511 115.479 131.305 115.273 131.305 114.917V102.943C131.305 102.568 131.492 102.381 131.867 102.362ZM135.09 108.133H136.102C137.001 108.133 137.451 108.021 137.451 106.859C137.451 105.698 137.001 105.585 136.102 105.585H135.09C134.734 105.585 134.528 105.773 134.528 106.147V107.571C134.528 107.946 134.734 108.133 135.09 108.133ZM135.071 112.818H136.251C137.151 112.818 137.601 112.724 137.601 111.844C137.601 110.963 137.188 110.832 136.289 110.832H135.071C134.715 110.832 134.509 111.019 134.509 111.394V112.256C134.509 112.631 134.715 112.818 135.071 112.818Z" fill="white"/>
<path d="M152.402 114.842C152.402 115.254 152.215 115.479 151.84 115.479H149.741C149.385 115.479 149.179 115.291 149.179 114.917V113.286C149.179 112.912 148.992 112.724 148.617 112.724H147.006C146.65 112.724 146.444 112.912 146.444 113.286V114.917C146.444 115.291 146.256 115.479 145.881 115.479H143.783C143.427 115.479 143.221 115.254 143.221 114.842V106.897C143.221 104.536 143.595 102.025 147.811 102.025C152.027 102.025 152.402 104.536 152.402 106.897V114.842ZM149.179 106.897C149.179 105.997 149.048 105.548 147.811 105.548C146.575 105.548 146.444 105.997 146.444 106.897V108.939C146.444 109.295 146.65 109.501 147.006 109.501H148.617C148.992 109.483 149.179 109.295 149.179 108.92V106.897Z" fill="white"/>
<path d="M163.103 110.775L165.089 114.467C165.351 114.954 165.052 115.479 164.471 115.479H162.335C162.147 115.479 161.979 115.385 161.904 115.216L159.955 111.45C159.918 111.394 159.861 111.356 159.805 111.356H159.056C158.718 111.356 158.475 111.6 158.475 111.937V114.898C158.475 115.235 158.231 115.479 157.894 115.479H155.795C155.458 115.479 155.214 115.235 155.214 114.898V102.943C155.214 102.606 155.458 102.362 155.795 102.362H159.899C163.234 102.362 164.583 103.786 164.583 106.859C164.583 108.602 164.152 109.82 163.159 110.532C163.084 110.588 163.065 110.682 163.103 110.775ZM160.011 105.585H159.056C158.718 105.585 158.475 105.829 158.475 106.166V107.553C158.475 107.89 158.718 108.133 159.056 108.133H160.011C160.911 108.133 161.36 108.021 161.36 106.859C161.36 105.698 160.911 105.585 160.011 105.585Z" fill="white"/>
<path d="M25.6499 102.412H15.2937C14.5791 102.412 14 102.99 14 103.704V104.102C14 104.816 14.5793 105.394 15.2937 105.394H16.322C17.3766 105.394 18.2316 106.249 18.2316 107.304V108.466C18.2316 108.879 18.5659 109.213 18.9784 109.213V109.213C19.3909 109.213 19.7252 109.547 19.7252 109.96V120.896C19.7252 121.809 18.9847 122.55 18.0712 122.55H17.1346C16.7383 122.55 16.4171 122.871 16.4171 123.267V123.267C16.4171 123.663 16.7383 123.985 17.1346 123.985H23.809C24.2053 123.985 24.5265 123.663 24.5265 123.267V123.267C24.5265 122.871 24.2053 122.55 23.809 122.55H22.8726C21.9591 122.55 21.2186 121.809 21.2186 120.896V109.96C21.2186 109.547 21.553 109.213 21.9654 109.213V109.213C22.3779 109.213 22.7123 108.879 22.7123 108.466V107.304C22.7123 106.249 23.5672 105.394 24.6218 105.394H25.6501C26.3648 105.394 26.9438 104.816 26.9438 104.102V103.704C26.9436 102.99 26.3645 102.412 25.6499 102.412Z" fill="black"/>
</svg>
